<?xml version="1.0" standalone="no"?><!DOCTYPE svg PUBLIC "-//W3C//DTD SVG 1.1//EN" "http://www.w3.org/Graphics/SVG/1.1/DTD/svg11.dtd"><svg width="200.1953125" height="200" viewBox="0 0 200.1953125 200" version="1.1" xmlns="http://www.w3.org/2000/svg" xmlns:xlink="http://www.w3.org/1999/xlink"><defs><style type="text/css"><![CDATA[
@font-face { font-family: ifont; src: url("http://at.alicdn.com/t/font_1442373896_4754455.eot?#iefix") format("embedded-opentype"), url("http://at.alicdn.com/t/font_1442373896_4754455.woff") format("woff"), url("http://at.alicdn.com/t/font_1442373896_4754455.ttf") format("truetype"), url("http://at.alicdn.com/t/font_1442373896_4754455.svg#ifont") format("svg"); }

]]></style></defs><g class="transform-group"><g transform="scale(0.1953125, 0.1953125)"><path d="M337.3687 581.566402c1.689479 0 3.356444-0.082888 5.01113-0.206708l109.249193 0 0 125.172861c0 36.935214 30.209022 67.305919 67.199495 67.305919 37.19411 0 67.403133-30.370705 67.403133-67.305919 0-1.683339-0.078795-3.350304-0.201591-5.007037L586.03006 581.359694l130.430608 0c1.64957 0.122797 3.310396 0.206708 4.993734 0.206708 36.992519 0 67.201541-30.370705 67.201541-67.306942 0-37.142945-30.209022-67.305919-67.201541-67.305919-1.689479 0-3.356444 0.082888-5.01113 0.206708L586.03006 447.160249 586.03006 328.223417c0.122797-1.656733 0.201591-3.323699 0.201591-5.006014 0-36.936237-30.209022-67.306942-67.403133-67.306942-36.991496 0-67.199495 30.370705-67.199495 67.306942l0 123.941823L337.576431 447.159226l0 0.00614c-0.067538 0-0.135076-0.00614-0.207731-0.00614-36.986379 0-67.195402 30.162974-67.195402 67.306942C270.173299 551.403428 300.381297 581.566402 337.3687 581.566402L337.3687 581.566402zM838.462303 906.428258c26.779923-21.941732 51.572586-46.959521 73.80596-74.959226 70.254064-87.587847 112.369254-198.554148 112.369254-319.04436 0-281.738709-230.159984-511.569188-512.318248-511.569188-282.154171 0-512.319272 229.824339-512.319272 511.569188 0 111.508653 36.080753 214.869742 97.140411 299.083749 15.33629 24.12342 37.96466 50.371224 69.482491 77.882811 91.233887 83.517135 212.681914 134.608767 345.69637 134.608767 121.470539 0 233.280044-42.623773 321.265958-113.622804 1.068332-0.856507 2.136663-1.711991 3.198855-2.578732C837.343829 907.340023 837.908694 906.886699 838.462303 906.428258L838.462303 906.428258zM134.278235 222.580355c81.132832-47.171346 173.73181-72.240301 231.452419-83.705424 107.269096-21.336958 236.121765 14.777565 283.389302 37.144992 80.350003 37.758975 105.008612 75.925227 146.521075 115.121947l23.63121 22.366404c55.437613 52.372811 111.99984 45.639456 128.58968 5.01727 26.623357 59.286268 41.461297 124.914988 41.461297 193.900152 0 111.526049-38.753629 214.298737-103.470583 295.621904-78.639035 43.535539-166.265768 67.087954-221.843574 78.095659-107.067504 21.343097-235.921197-14.776542-283.389302-37.142945-80.147388-37.759999-105.009635-75.92625-146.319483-114.915239l-23.63121-22.567995c-56.002478-52.804646-115.536386-46.478568-134.077671-5.615904-26.505677-59.174728-41.277102-124.657114-41.277102-193.47548C35.315316 403.523403 72.279183 302.970266 134.278235 222.580355L134.278235 222.580355zM134.278235 222.580355" fill="#272636"></path></g></g></svg>