<?xml version="1.0" standalone="no"?><!DOCTYPE svg PUBLIC "-//W3C//DTD SVG 1.1//EN" "http://www.w3.org/Graphics/SVG/1.1/DTD/svg11.dtd"><svg width="200" height="200" viewBox="0 0 200 200" version="1.1" xmlns="http://www.w3.org/2000/svg" xmlns:xlink="http://www.w3.org/1999/xlink"><defs><style type="text/css"><![CDATA[
@font-face { font-family: ifont; src: url("http://at.alicdn.com/t/font_1442373896_4754455.eot?#iefix") format("embedded-opentype"), url("http://at.alicdn.com/t/font_1442373896_4754455.woff") format("woff"), url("http://at.alicdn.com/t/font_1442373896_4754455.ttf") format("truetype"), url("http://at.alicdn.com/t/font_1442373896_4754455.svg#ifont") format("svg"); }

]]></style></defs><g class="transform-group"><g transform="scale(0.1953125, 0.1953125)"><path d="M290 454.8l-128.3-222C243.8 129.9 370.3 64.1 512 64.1c164 0 307.4 88.1 385.5 219.6L531.9 283.7c-6.6-0.6-13.2-0.9-19.9-0.9C405.4 282.8 315.5 356 290 454.8L290 454.8zM672.4 348.4l256.8 0c19.9 50.7 30.8 105.9 30.8 163.6 0 245.7-197.8 445.1-442.9 447.9l183.2-317.3c25.8-37.1 40.9-82.1 40.9-130.6C741.2 448 714.9 390 672.4 348.4L672.4 348.4 672.4 348.4zM349.3 512c0-89.8 73-162.7 162.7-162.7s162.7 73 162.7 162.7-73 162.7-162.7 162.7S349.3 601.8 349.3 512zM573.4 732.9 445.2 955C229.4 922.8 64.1 736.8 64.1 512c0-79.8 20.9-154.8 57.5-219.6l182.9 316.8c36.7 78 115.9 132.1 207.6 132.1C533.3 741.3 553.8 738.3 573.4 732.9z" fill="#272636"></path></g></g></svg>