<?xml version="1.0" standalone="no"?><!DOCTYPE svg PUBLIC "-//W3C//DTD SVG 1.1//EN" "http://www.w3.org/Graphics/SVG/1.1/DTD/svg11.dtd"><svg width="200.1953125" height="200" viewBox="0 0 200.1953125 200" version="1.1" xmlns="http://www.w3.org/2000/svg" xmlns:xlink="http://www.w3.org/1999/xlink"><defs><style type="text/css"><![CDATA[
@font-face { font-family: ifont; src: url("http://at.alicdn.com/t/font_1442373896_4754455.eot?#iefix") format("embedded-opentype"), url("http://at.alicdn.com/t/font_1442373896_4754455.woff") format("woff"), url("http://at.alicdn.com/t/font_1442373896_4754455.ttf") format("truetype"), url("http://at.alicdn.com/t/font_1442373896_4754455.svg#ifont") format("svg"); }

]]></style></defs><g class="transform-group"><g transform="scale(0.1953125, 0.1953125)"><path d="M516.022857 1024q-161.718857 0-288.256-86.016t-188.269714-227.693714q-33.133714-74.825143-38.253714-172.032t14.848-190.025143 63.414857-178.322286 102.253714-138.605714l-6.290286 160.548571q6.290286-7.972571 38.838857-8.850286t40.009143 8.850286q23.990857-46.299429 91.721143-78.848t133.997714-33.718857q-30.866286 25.746286-68.315429 84.845714t-33.426286 93.403429q14.262857 4.534857 35.693714 7.68t35.986286 4.315429 38.838857 2.267429 28.891429 1.682286q8.557714 2.852571 5.412571 25.965714t-17.408 43.154286q-2.852571 4.022857-9.435429 10.605714t-32.256 20.260571-57.709714 19.456l8.557714 108.032-79.433143-38.253714q-10.313143 24.576-4.315429 46.592t20.553143 38.034286 37.449143 23.698286 46.299429 3.730286q29.110857-5.12 56.027429-19.748571t47.689143-25.746286 41.984-10.020571q34.889143 2.267429 51.126857 18.870857t11.117714 37.156571q-0.585143 1.170286-1.462857 3.145143t-4.827429 7.168-10.313143 8.850286-17.993143 5.997714-26.550857 0.585143q-34.304 54.272-82.578286 77.458286t-119.734857 16.822857q42.276571 34.889143 92.891429 47.177143t96.256 3.437714 88.283429-29.696 73.142857-50.029714 46.006857-59.465143q24.576-52.004571 22.308571-110.006857t-21.430857-107.739429-44.836571-71.460571q49.737143 21.723429 78.262857 45.421714t44.032 64.292571q8.557714-97.133714-32.841143-196.022857t-119.734857-162.304q151.405714 44.032 235.446857 159.744t86.308571 295.716571q1.170286 72.557714-23.113143 145.700571t-70.582857 135.972571-108.032 111.981714-141.458286 77.458286-164.864 28.306286z" fill="#272636"></path></g></g></svg>