<?xml version="1.0" standalone="no"?><!DOCTYPE svg PUBLIC "-//W3C//DTD SVG 1.1//EN" "http://www.w3.org/Graphics/SVG/1.1/DTD/svg11.dtd"><svg width="200" height="200" viewBox="0 0 200 200" version="1.1" xmlns="http://www.w3.org/2000/svg" xmlns:xlink="http://www.w3.org/1999/xlink"><defs><style type="text/css"><![CDATA[
@font-face { font-family: ifont; src: url("http://at.alicdn.com/t/font_1442373896_4754455.eot?#iefix") format("embedded-opentype"), url("http://at.alicdn.com/t/font_1442373896_4754455.woff") format("woff"), url("http://at.alicdn.com/t/font_1442373896_4754455.ttf") format("truetype"), url("http://at.alicdn.com/t/font_1442373896_4754455.svg#ifont") format("svg"); }

]]></style></defs><g class="transform-group"><g transform="scale(0.1953125, 0.1953125)"><path d="M945.666322 40.216183C771.700105-80.957154 467.70863 110.326046 467.70863 110.326046L464.84143 110.894938C464.795922 110.917692 464.795922 110.9632 464.727659 110.985955 463.476105 111.259029 462.17903 111.441075 460.881968 111.714138L460.95023 111.623121 455.989522 112.738138C455.989522 112.738138 157.504905 164.302229 96.952368 428.881075 96.952368 428.881075 98.590768 426.286938 101.480722 422.008892 175.936905 305.363921 296.518597 267.4304 296.518597 267.4304 202.196814 356.450138 121.004997 503.223475 112.38063 519.061337 112.38063 519.1296 112.357876 519.152354 112.357876 519.220629 107.784014 527.822229 103.232905 536.514846 98.795568 545.480537 43.112722 650.793246-39.489941 925.225246 76.381351 989.441429 187.109876 1050.83592 333.587397 984.344183 386.539568 956.104537 438.62703 977.563029 495.675213 989.441429 555.499568 989.441429 736.40623 989.441429 891.917705 881.193246 961.117351 725.9776L713.87823 725.9776C681.610859 773.354675 627.24783 804.484275 565.60303 804.484275 466.525351 804.484275 386.220997 724.157154 386.220997 625.102229 386.220997 622.462583 386.516813 619.868446 386.630597 617.2288L993.63503 617.2288C997.412459 593.858846 999.483213 569.942754 999.483213 545.480537 999.483213 468.043383 979.617613 395.293875 944.756105 331.896892 968.490151 293.075921 1063.176013 122.090675 945.666322 40.216183L945.666322 40.216183ZM139.186676 959.563383C58.586505 887.746846 121.573876 747.777429 142.190414 707.59112 179.213705 801.912892 247.525876 880.419554 334.406597 930.436275 298.771397 952.759475 195.461168 1009.762137 139.186676 959.563383L139.186676 959.563383ZM930.215305 100.359121C996.115396 150.444092 939.840905 272.231829 925.618676 300.334938 870.095122 216.685521 787.037351 152.901692 689.279476 122.067921 722.047476 99.926755 838.737968 30.863646 930.215305 100.359121L930.215305 100.359121ZM386.380276 473.709521C388.177968 376.247475 467.640368 297.718046 565.60303 297.718046 663.520196 297.718046 743.005351 376.247475 744.80303 473.709521L386.380276 473.709521 386.380276 473.709521Z" fill="#272636"></path></g></g></svg>