<?xml version="1.0" standalone="no"?><!DOCTYPE svg PUBLIC "-//W3C//DTD SVG 1.1//EN" "http://www.w3.org/Graphics/SVG/1.1/DTD/svg11.dtd"><svg width="200" height="200" viewBox="0 0 200 200" version="1.1" xmlns="http://www.w3.org/2000/svg" xmlns:xlink="http://www.w3.org/1999/xlink"><defs><style type="text/css"><![CDATA[
@font-face { font-family: ifont; src: url("http://at.alicdn.com/t/font_1442373896_4754455.eot?#iefix") format("embedded-opentype"), url("http://at.alicdn.com/t/font_1442373896_4754455.woff") format("woff"), url("http://at.alicdn.com/t/font_1442373896_4754455.ttf") format("truetype"), url("http://at.alicdn.com/t/font_1442373896_4754455.svg#ifont") format("svg"); }

]]></style></defs><g class="transform-group"><g transform="scale(0.1953125, 0.1953125)"><path d="M102.677315 516.879114c0-3.253084 0-6.506168 0-9.759252 7.14164-128.466627 52.481177-219.141608 122.525323-287.33869C288.443858 158.209985 389.387696 99.161242 515.794412 102.678339c126.069025 3.507887 217.771403 52.958037 286.252964 121.441644 67.273038 67.272015 118.18856 160.24636 118.18856 289.507071 0 129.178846-53.034784 219.75866-119.273262 287.337666C735.885646 867.359763 641.85832 921.321661 513.62603 921.321661c-127.849574 0-222.681217-52.776912-289.508094-118.18856C155.307895 735.778199 109.52015 645.745853 102.677315 516.879114zM497.361634 124.3642C339.245793 131.719711 230.007051 217.507391 172.072687 323.874741c-32.664892 59.97381-51.571459 129.64445-47.70951 214.690235 3.61431 79.575201 31.847272 142.213695 68.310669 194.089075 70.827997 100.765783 186.736635 180.519039 355.649358 166.981748 76.884934-6.161314 141.209833-35.65908 190.834968-71.563753 51.521318-37.274877 88.987552-83.56711 120.356941-142.042803-29.512092-41.01403-78.279698-68.398673-151.802055-61.804501-7.11708-69.866091-32.622936-121.346476-75.900516-155.054115 21.006388 28.721078 39.286693 55.18884 45.541128 91.081233 7.556078 43.362513-16.558085 72.169549-39.03496 93.249614-21.184443 19.86745-44.641644 31.768477-75.900516 43.371723-40.015286 14.855306-78.91824 42.620618-106.260927 72.647432-6.322996 6.943119-23.713027 32.516513-27.107327 32.528792-0.726546 0.00307-10.377327-11.159132-13.011312-14.094991-13.230299-14.74479-29.704473-32.260687-36.865555-43.371723 41.390606-5.581101 71.513611-23.440828 75.900516-60.720822 5.636359-47.900867-26.537347-87.239749-74.816837-85.659767-27.714146 0.907671-48.748163 16.560131-59.636119 32.528792-3.927441 5.761202-8.614174 26.991694-16.264396 28.192029-10.366071 1.62603-16.661438-15.162298-21.685862-22.770564-7.221457-10.935028-15.843818-17.998897-15.179694-29.275709 0.539281-9.162665 13.150482-18.869729 20.601159-24.937922 26.096303-21.255051 54.635232-39.055426 79.1536-57.467738-11.640085-12.447472-9.996658-37.528657-3.253084-53.130975 15.941032-36.877835 52.183395-64.367878 86.743446-89.99653 36.351857-26.956901 74.890514-51.425127 108.429308-68.310669-4.825902-14.691578-11.870328-27.164632-17.349099-41.203342 28.409993-9.987449 70.846416-5.362114 92.164912 7.589847 45.58206-18.753072 98.182964-30.486277 159.391902-33.613495C727.062717 177.949522 635.446297 117.939897 497.361634 124.3642zM422.544798 484.350322c-7.103777 5.919815-15.694416 10.572779-19.51748 18.432778 5.825671-3.210105 12.692041-5.378487 19.51748-7.589847 5.969956 3.788272 10.355838 9.161642 17.349099 11.927633 16.628692-24.935876 35.004165-48.124971 50.96157-73.732134 1.139961-0.059352 0.852412-1.389647-1.084702-1.084702C467.063645 448.371971 443.223728 467.116857 422.544798 484.350322z" fill="#272636"></path></g></g></svg>