<?xml version="1.0" standalone="no"?><!DOCTYPE svg PUBLIC "-//W3C//DTD SVG 1.1//EN" "http://www.w3.org/Graphics/SVG/1.1/DTD/svg11.dtd"><svg width="200" height="200" viewBox="0 0 200 200" version="1.1" xmlns="http://www.w3.org/2000/svg" xmlns:xlink="http://www.w3.org/1999/xlink"><defs><style type="text/css"><![CDATA[
@font-face { font-family: ifont; src: url("http://at.alicdn.com/t/font_1442373896_4754455.eot?#iefix") format("embedded-opentype"), url("http://at.alicdn.com/t/font_1442373896_4754455.woff") format("woff"), url("http://at.alicdn.com/t/font_1442373896_4754455.ttf") format("truetype"), url("http://at.alicdn.com/t/font_1442373896_4754455.svg#ifont") format("svg"); }

]]></style></defs><g class="transform-group"><g transform="scale(0.1953125, 0.1953125)"><path d="M510.562258 102.975097c1.388624 0 2.777247 0 4.165871 0 127.569189 4.327553 219.707495 53.062414 286.420786 119.775705 66.713291 66.713291 116.086693 158.207939 120.817428 285.379062 0 2.777247 0 5.554495 0 8.331742-4.732782 127.1701-54.096974 218.659631-120.817428 285.380086-66.715338 66.715338-158.810665 115.493177-286.420786 119.776728-1.388624 0-2.777247 0-4.165871 0-128.584307-3.652173-219.530463-53.927106-286.420786-120.817428-66.890323-66.890323-117.131487-157.871272-120.817428-286.420786 0-1.388624 0-2.777247 0-4.165871 2.139729-64.992093 14.919775-119.681561 37.494887-167.686805C204.272998 207.59669 324.510213 112.041572 510.562258 102.975097zM765.737475 451.888044c0-24.561346 2.528585-53.118695-5.208618-71.865627-7.474214-18.113507-28.759963-35.460559-51.034225-38.536611-16.82005-2.3229-36.734572 0-55.201119 0-125.812176 0-268.901819 0.001023-389.533006 0-1.88288 0-3.589751 0.807387-4.165871 2.083447-7.519239 2.596123-5.207595 24.143838-5.207595 38.536611 0 74.57329 0 145.920102 0 216.638606 0 29.397482-2.479466 58.235216 3.124148 83.323564 35.065563 2.429324 74.642875 0.3469 111.443962 1.041724 0.6938-79.851493-1.388624-162.478187 1.041724-240.594156 94.779454 0 189.557885 0 284.337339 0 0 79.50357 0 159.007139 0 238.510709 35.825878-1.322109 76.984195 2.68822 109.360515-2.082424C766.598073 605.193333 765.737475 527.522501 765.737475 451.888044zM452.235968 532.086437c0 49.992501 0 99.987049 0 149.980573 39.926258 0 79.851493 0 119.775705 0 0-51.035248 0-102.070496 0-153.105744-39.578335 0-79.156669 0-118.733981 0C452.065076 529.137275 452.14694 530.607763 452.235968 532.086437z" fill="#272636"></path></g></g></svg>