<?xml version="1.0" standalone="no"?><!DOCTYPE svg PUBLIC "-//W3C//DTD SVG 1.1//EN" "http://www.w3.org/Graphics/SVG/1.1/DTD/svg11.dtd"><svg width="200" height="200" viewBox="0 0 200 200" version="1.1" xmlns="http://www.w3.org/2000/svg" xmlns:xlink="http://www.w3.org/1999/xlink"><defs><style type="text/css"><![CDATA[
@font-face { font-family: ifont; src: url("http://at.alicdn.com/t/font_1442373896_4754455.eot?#iefix") format("embedded-opentype"), url("http://at.alicdn.com/t/font_1442373896_4754455.woff") format("woff"), url("http://at.alicdn.com/t/font_1442373896_4754455.ttf") format("truetype"), url("http://at.alicdn.com/t/font_1442373896_4754455.svg#ifont") format("svg"); }

]]></style></defs><g class="transform-group"><g transform="scale(0.1953125, 0.1953125)"><path d="M1024 512l0 0 0 0c0 151.616-65.984 288-170.816 381.632-131.392 64-253.824 19.2-294.208-8.768 129.024-28.224 226.368-184.192 226.368-372.8s-97.408-344.576-226.368-372.992c40.576-28.032 163.008-72.768 294.208-8.832 104.768 93.824 170.816 230.208 170.816 381.824l0 0 0 0zM343.424 223.424c-56.576 66.816-93.184 165.568-95.616 276.608 0 0.192 0 23.808 0 24.192 2.432 110.784 39.232 209.6 95.808 276.416 73.408 95.424 182.592 155.776 304.576 155.776 75.008 0 145.216-22.784 205.184-62.592-90.816 81.024-210.368 130.176-341.376 130.176-8.192 0-16.384-0.192-24.384-0.576-271.424-12.8-487.616-236.8-487.616-511.424 0-282.816 229.184-512 512-512 0.576 0 1.216 0 1.984 0 130.368 0.384 249.216 49.6 339.392 130.432-60.032-39.808-130.176-62.784-205.184-62.784-121.984 0-231.168 60.416-304.832 155.776z" fill="#272636"></path></g></g></svg>