<?xml version="1.0" standalone="no"?><!DOCTYPE svg PUBLIC "-//W3C//DTD SVG 1.1//EN" "http://www.w3.org/Graphics/SVG/1.1/DTD/svg11.dtd"><svg width="250" height="200" viewBox="0 0 250 200" version="1.1" xmlns="http://www.w3.org/2000/svg" xmlns:xlink="http://www.w3.org/1999/xlink"><defs><style type="text/css"><![CDATA[
@font-face { font-family: ifont; src: url("http://at.alicdn.com/t/font_1442373896_4754455.eot?#iefix") format("embedded-opentype"), url("http://at.alicdn.com/t/font_1442373896_4754455.woff") format("woff"), url("http://at.alicdn.com/t/font_1442373896_4754455.ttf") format("truetype"), url("http://at.alicdn.com/t/font_1442373896_4754455.svg#ifont") format("svg"); }

]]></style></defs><g class="transform-group"><g transform="scale(0.1953125, 0.1953125)"><path d="M901.973333 771.84c0 23.466667-19.2 42.666667-42.666667 42.666667L423.253333 816.64c-23.466667 0-42.666667-19.2-42.666667-42.666667L382.72 125.866667c0-23.466667 19.2-42.666667 42.666667-42.666667L859.306667 81.066667c23.466667 0 42.666667 18.773333 42.666667 42.666667L901.973333 771.84zM635.306667 982.613333c-46.506667 0-65.28-11.093333-65.28-66.986667 0-48.213333 18.773333-67.84 65.28-67.84 42.666667 0 74.24 22.613333 74.24 67.84C709.546667 971.52 681.813333 982.613333 635.306667 982.613333zM892.586667 0 371.2 0C339.2 0 298.666667 50.773333 298.666667 83.2l0 861.866667C298.666667 977.493333 345.6 1024 377.6 1024l517.973333 0c32 0 85.76-62.293333 85.76-94.72L981.333333 85.76C981.333333 53.333333 924.586667 0 892.586667 0z" fill="#272636"></path></g></g></svg>